<?xml version="1.0" encoding="UTF-8" standalone="no"?>
<!DOCTYPE svg PUBLIC "-//W3C//DTD SVG 1.1//EN"
 "http://www.w3.org/Graphics/SVG/1.1/DTD/svg11.dtd">
<!-- Generated by graphviz version 2.43.20190912.0211 (20190912.0211)
 -->
<!-- Title: user_paths Pages: 1 -->
<svg width="712pt" height="107pt"
 viewBox="0.00 0.00 712.00 107.00" xmlns="http://www.w3.org/2000/svg" xmlns:xlink="http://www.w3.org/1999/xlink">
<g id="graph0" class="graph" transform="scale(1 1) rotate(0) translate(4 103)">
<title>user_paths</title>
<polygon fill="white" stroke="transparent" points="-4,4 -4,-103 708,-103 708,4 -4,4"/>
<!-- REG -->
<g id="node1" class="node">
<title>REG</title>
<polygon fill="none" stroke="black" points="90,-36 0,-36 0,0 90,0 90,-36"/>
<text text-anchor="middle" x="45" y="-14.3" font-family="Times,serif" font-size="14.00">Регистрация</text>
</g>
<!-- TUTB -->
<g id="node2" class="node">
<title>TUTB</title>
<polygon fill="none" stroke="black" points="197,-80 126,-80 126,-42 197,-42 197,-80"/>
<text text-anchor="middle" x="161.5" y="-64.8" font-family="Times,serif" font-size="14.00">Начато</text>
<text text-anchor="middle" x="161.5" y="-49.8" font-family="Times,serif" font-size="14.00">обучение</text>
</g>
<!-- REG&#45;&gt;TUTB -->
<g id="edge1" class="edge">
<title>REG&#45;&gt;TUTB</title>
<path fill="none" stroke="black" d="M90.27,-34.62C98.86,-37.85 107.87,-41.24 116.46,-44.46"/>
<polygon fill="black" stroke="black" points="115.34,-47.78 125.94,-48.02 117.8,-41.23 115.34,-47.78"/>
</g>
<!-- S_LVL -->
<g id="node4" class="node">
<title>S_LVL</title>
<polygon fill="none" stroke="black" points="447,-52 346,-52 346,-14 447,-14 447,-52"/>
<text text-anchor="middle" x="396.5" y="-36.8" font-family="Times,serif" font-size="14.00">Выбор уровня</text>
<text text-anchor="middle" x="396.5" y="-21.8" font-family="Times,serif" font-size="14.00">сложности</text>
</g>
<!-- REG&#45;&gt;S_LVL -->
<g id="edge2" class="edge">
<title>REG&#45;&gt;S_LVL</title>
<path fill="none" stroke="black" d="M90.26,-19.9C152.46,-22.57 265.9,-27.44 335.6,-30.43"/>
<polygon fill="black" stroke="black" points="335.83,-33.94 345.97,-30.87 336.13,-26.95 335.83,-33.94"/>
</g>
<!-- TUTE -->
<g id="node3" class="node">
<title>TUTE</title>
<polygon fill="none" stroke="black" points="310,-99 233,-99 233,-61 310,-61 310,-99"/>
<text text-anchor="middle" x="271.5" y="-83.8" font-family="Times,serif" font-size="14.00">Закончено</text>
<text text-anchor="middle" x="271.5" y="-68.8" font-family="Times,serif" font-size="14.00">обучение</text>
</g>
<!-- TUTB&#45;&gt;TUTE -->
<g id="edge3" class="edge">
<title>TUTB&#45;&gt;TUTE</title>
<path fill="none" stroke="black" d="M197.27,-60.76C205.42,-61.85 214.25,-63.28 222.86,-64.91"/>
<polygon fill="black" stroke="black" points="222.32,-68.37 232.81,-66.9 223.69,-61.51 222.32,-68.37"/>
</g>
<!-- TUTB&#45;&gt;S_LVL -->
<g id="edge4" class="edge">
<title>TUTB&#45;&gt;S_LVL</title>
<path fill="none" stroke="black" d="M197.27,-56.49C208.66,-55.03 221.36,-53.42 233,-52 266.94,-47.85 304.9,-43.4 335.59,-39.85"/>
<polygon fill="black" stroke="black" points="336.17,-43.31 345.7,-38.68 335.36,-36.35 336.17,-43.31"/>
</g>
<!-- TUTE&#45;&gt;TUTB -->
<g id="edge5" class="edge">
<title>TUTE&#45;&gt;TUTB</title>
<path fill="none" stroke="black" d="M232.81,-79.84C224.51,-78.67 215.64,-77.18 207.1,-75.5"/>
<polygon fill="black" stroke="black" points="207.77,-72.07 197.27,-73.47 206.35,-78.92 207.77,-72.07"/>
</g>
<!-- TUTE&#45;&gt;S_LVL -->
<g id="edge6" class="edge">
<title>TUTE&#45;&gt;S_LVL</title>
<path fill="none" stroke="black" d="M310.07,-65.64C318.37,-62.47 327.36,-59.04 336.29,-55.63"/>
<polygon fill="black" stroke="black" points="337.82,-58.79 345.91,-51.95 335.32,-52.25 337.82,-58.79"/>
</g>
<!-- S_FREE -->
<g id="node5" class="node">
<title>S_FREE</title>
<polygon fill="none" stroke="black" points="584,-59.5 483,-59.5 483,-6.5 584,-6.5 584,-59.5"/>
<text text-anchor="middle" x="533.5" y="-44.3" font-family="Times,serif" font-size="14.00">Выбор набора</text>
<text text-anchor="middle" x="533.5" y="-29.3" font-family="Times,serif" font-size="14.00">бесплатных</text>
<text text-anchor="middle" x="533.5" y="-14.3" font-family="Times,serif" font-size="14.00">тренировок</text>
</g>
<!-- S_LVL&#45;&gt;S_FREE -->
<g id="edge7" class="edge">
<title>S_LVL&#45;&gt;S_FREE</title>
<path fill="none" stroke="black" d="M447,-33C455.24,-33 463.87,-33 472.34,-33"/>
<polygon fill="black" stroke="black" points="472.55,-36.5 482.55,-33 472.55,-29.5 472.55,-36.5"/>
</g>
<!-- BUY -->
<g id="node6" class="node">
<title>BUY</title>
<polygon fill="none" stroke="black" points="704,-59.5 620,-59.5 620,-6.5 704,-6.5 704,-59.5"/>
<text text-anchor="middle" x="662" y="-44.3" font-family="Times,serif" font-size="14.00">Покупка</text>
<text text-anchor="middle" x="662" y="-29.3" font-family="Times,serif" font-size="14.00">платных</text>
<text text-anchor="middle" x="662" y="-14.3" font-family="Times,serif" font-size="14.00">тренировок</text>
</g>
<!-- S_FREE&#45;&gt;BUY -->
<g id="edge8" class="edge">
<title>S_FREE&#45;&gt;BUY</title>
<path fill="none" stroke="black" d="M584.13,-33C592.5,-33 601.2,-33 609.61,-33"/>
<polygon fill="black" stroke="black" points="609.68,-36.5 619.68,-33 609.68,-29.5 609.68,-36.5"/>
</g>
</g>
</svg>
